<svg id="logo-color" xmlns="http://www.w3.org/2000/svg" xmlns:xlink="http://www.w3.org/1999/xlink" width="132.167" height="104" viewBox="0 0 132.167 104">
  <defs>
    <linearGradient id="linear-gradient" x1="0.5" y1="1" x2="0.5" gradientUnits="objectBoundingBox">
      <stop offset="0" stop-color="#fff7b2"/>
      <stop offset="0.3" stop-color="#d7b46a"/>
      <stop offset="0.52" stop-color="#d7b46a"/>
      <stop offset="0.72" stop-color="#fff8d6"/>
      <stop offset="1" stop-color="#d7b46a"/>
    </linearGradient>
    <linearGradient id="linear-gradient-2" x1="0.5" y1="1" x2="0.5" y2="0" xlink:href="#linear-gradient"/>
    <linearGradient id="linear-gradient-3" x1="0.5" y1="1" x2="0.5" y2="0" xlink:href="#linear-gradient"/>
    <linearGradient id="linear-gradient-4" x1="0.5" y1="1" x2="0.5" y2="0" xlink:href="#linear-gradient"/>
    <linearGradient id="linear-gradient-6" x1="0.5" y1="1" x2="0.5" y2="0" xlink:href="#linear-gradient"/>
    <linearGradient id="linear-gradient-7" x1="0.5" y1="1" x2="0.5" y2="0" xlink:href="#linear-gradient"/>
    <linearGradient id="linear-gradient-8" x1="0" y1="0.5" x2="1" y2="0.5" xlink:href="#linear-gradient"/>
  </defs>
  <g id="Group_3" data-name="Group 3" transform="translate(0 35.871)">
    <path id="Path_9" data-name="Path 9" d="M30.167,242.093l.305,11.352h-.587q-.281-.736-.433-1.117Q28.559,249.889,28,248.7a12.788,12.788,0,0,0-2.881-3.91,9.423,9.423,0,0,0-2.958-1.955,9.246,9.246,0,0,0-3.443-.61,9.683,9.683,0,0,0-5,1.244,12.524,12.524,0,0,0-3.468,3.136,18.186,18.186,0,0,0-2.627,4.66,22.682,22.682,0,0,0-1.454,8.379,24.154,24.154,0,0,0,.994,7.186,14.416,14.416,0,0,0,2.907,5.358A11.8,11.8,0,0,0,19.4,276.2a13.037,13.037,0,0,0,5.228-1,8.232,8.232,0,0,0,3.6-2.832,14.456,14.456,0,0,0,2.141-5.688l.587.1a13.536,13.536,0,0,1-2.192,6.374,10.252,10.252,0,0,1-4.5,3.454,17.2,17.2,0,0,1-6.643,1.193,21.727,21.727,0,0,1-6.733-1.041A14.793,14.793,0,0,1,2.88,270.7,18.587,18.587,0,0,1,0,260.249a21.521,21.521,0,0,1,1.683-8.57,15.859,15.859,0,0,1,4.692-6.311,18.218,18.218,0,0,1,5.547-2.908,20.285,20.285,0,0,1,6.465-1.08,19.861,19.861,0,0,1,6.528,1.168l2.09.686a3.131,3.131,0,0,0,1.071.228,1.259,1.259,0,0,0,1.045-.534,5.247,5.247,0,0,0,.434-.838h.612Z" transform="translate(0 -241.255)" fill="url(#linear-gradient)"/>
    <path id="Path_10" data-name="Path 10" d="M248.46,352l.434.254q-.919,2.666-4.208,2.666a4.928,4.928,0,0,1-3.013-.889A6.7,6.7,0,0,1,240.04,352a16.8,16.8,0,0,1-2.58,2.006,7.858,7.858,0,0,1-3.856.914,6.832,6.832,0,0,1-4.457-1.347,4.446,4.446,0,0,1-1.647-3.631,4.925,4.925,0,0,1,1.352-3.53,6.019,6.019,0,0,1,1.76-1.257,16.92,16.92,0,0,1,2.881-.953q2.219-.559,3.277-.94a6.8,6.8,0,0,0,1.772-.914,3.058,3.058,0,0,0,1.122-1.372,6.229,6.229,0,0,0,.305-2.183,6.83,6.83,0,0,0-1.122-4.343,3.655,3.655,0,0,0-1.313-1.016,3.859,3.859,0,0,0-1.67-.38,3.317,3.317,0,0,0-1.861.534,3.253,3.253,0,0,0-1.223,1.473l-.638,1.473a1.838,1.838,0,0,1-1.836,1.193,2,2,0,0,1-1.454-.571,1.919,1.919,0,0,1-.587-1.435q0-1.3,1.839-2.183a11.171,11.171,0,0,1,2.465-.749,14.775,14.775,0,0,1,2.874-.292,14.3,14.3,0,0,1,3.294.406,11.443,11.443,0,0,1,2.86,1.041,4.035,4.035,0,0,1,2.068,2.438,11.153,11.153,0,0,1,.2,2.565v9.4a16.821,16.821,0,0,0,.2,3.251,2.028,2.028,0,0,0,2.09,1.8,2.325,2.325,0,0,0,1.237-.279A4.419,4.419,0,0,0,248.457,352Zm-8.44-10A17.065,17.065,0,0,1,237,344a26.377,26.377,0,0,0-2.567,1.5,6.826,6.826,0,0,0-1.3,1.218,5.283,5.283,0,0,0-1.195,3.428,4.125,4.125,0,0,0,.927,2.768,2.953,2.953,0,0,0,2.351,1.092,4.029,4.029,0,0,0,2.351-.774,4.785,4.785,0,0,0,1.665-2.07,12.11,12.11,0,0,0,.788-4.927V342Z" transform="translate(-193.432 -318.786)" fill="url(#linear-gradient-2)"/>
    <path id="Path_11" data-name="Path 11" d="M370.812,241.454l7.344-.914v28.319l.025,1.928a11.186,11.186,0,0,0,.2,2.525,2.641,2.641,0,0,0,.791,1.332,5.265,5.265,0,0,0,2.627,1.041v.534H370.53v-.534a6.623,6.623,0,0,0,2.192-.57,2.617,2.617,0,0,0,1.071-1.256,5.492,5.492,0,0,0,.4-1.763q.115-1.179.115-3.411v-19.9a35.317,35.317,0,0,0-.127-3.651,3.98,3.98,0,0,0-.562-1.724,2.6,2.6,0,0,0-1.045-1.014,4.783,4.783,0,0,0-1.76-.38v-.559Z" transform="translate(-315.044 -240.54)" fill="url(#linear-gradient-3)"/>
    <path id="Path_12" data-name="Path 12" d="M462.291,332.483a19.831,19.831,0,0,1,.589,3.53,11.547,11.547,0,0,1,3.608-2.616,9.917,9.917,0,0,1,4.169-.914,6.429,6.429,0,0,1,4,1.218,11.273,11.273,0,0,1,2.218,2.565,13.779,13.779,0,0,1,3.9-2.869,9.9,9.9,0,0,1,4.233-.914A7.357,7.357,0,0,1,490,334.144a5.471,5.471,0,0,1,1.926,4.35v8.6l.025,1.928a11.182,11.182,0,0,0,.2,2.523,2.722,2.722,0,0,0,.765,1.332,5.448,5.448,0,0,0,2.652,1.039v.534H484.3v-.534a6.43,6.43,0,0,0,2.18-.571,2.779,2.779,0,0,0,1.084-1.256,5.492,5.492,0,0,0,.4-1.763q.115-1.179.115-3.387V342.1a33.623,33.623,0,0,0-.178-4.108,6.251,6.251,0,0,0-.687-2.207,4.316,4.316,0,0,0-4.121-2.156,4.96,4.96,0,0,0-4.579,2.334q-1.247,2-1.246,6.24v4.9l.025,1.927a11.18,11.18,0,0,0,.2,2.523,2.72,2.72,0,0,0,.765,1.332,5.3,5.3,0,0,0,2.652,1.039v.534H469.635v-.534a6.43,6.43,0,0,0,2.18-.571,2.77,2.77,0,0,0,1.084-1.256,5.492,5.492,0,0,0,.4-1.763q.115-1.179.115-3.387v-4.692a35.611,35.611,0,0,0-.19-4.35,5.732,5.732,0,0,0-.725-2.244,3.871,3.871,0,0,0-1.577-1.433,4.95,4.95,0,0,0-2.29-.52,5.661,5.661,0,0,0-2.722.684,5.293,5.293,0,0,0-2.01,1.852,6.964,6.964,0,0,0-.979,2.5,19.807,19.807,0,0,0-.292,3.767v4.641l.025,1.878a11.182,11.182,0,0,0,.2,2.523,2.641,2.641,0,0,0,.791,1.332,5.266,5.266,0,0,0,2.627,1.039v.534H455v-.534a6.624,6.624,0,0,0,2.192-.57,2.613,2.613,0,0,0,1.071-1.254,5.471,5.471,0,0,0,.4-1.761q.115-1.179.115-3.406v-6.256a35.231,35.231,0,0,0-.127-3.661,3.945,3.945,0,0,0-.562-1.709,2.7,2.7,0,0,0-1.045-1.026,4.581,4.581,0,0,0-1.76-.392v-.534l7.01-.863Z" transform="translate(-386.864 -318.769)" fill="url(#linear-gradient-4)"/>
    <path id="Path_13" data-name="Path 13" d="M760.681,352l.434.254q-.919,2.666-4.208,2.666a4.928,4.928,0,0,1-3.013-.889A6.724,6.724,0,0,1,752.26,352a16.8,16.8,0,0,1-2.58,2.006,7.858,7.858,0,0,1-3.856.914,6.832,6.832,0,0,1-4.457-1.347,4.446,4.446,0,0,1-1.647-3.631,4.93,4.93,0,0,1,1.351-3.53,6.019,6.019,0,0,1,1.76-1.257,16.921,16.921,0,0,1,2.881-.953q2.219-.559,3.277-.94a6.779,6.779,0,0,0,1.772-.914,3.059,3.059,0,0,0,1.122-1.372,6.228,6.228,0,0,0,.306-2.183,6.83,6.83,0,0,0-1.122-4.343,3.655,3.655,0,0,0-1.313-1.016,3.864,3.864,0,0,0-1.67-.38,3.316,3.316,0,0,0-1.861.534A3.263,3.263,0,0,0,745,335.064l-.638,1.473a1.838,1.838,0,0,1-1.836,1.193,2,2,0,0,1-1.454-.571,1.92,1.92,0,0,1-.587-1.435q0-1.3,1.839-2.183a11.174,11.174,0,0,1,2.465-.749,14.775,14.775,0,0,1,2.874-.292,14.3,14.3,0,0,1,3.294.406,11.444,11.444,0,0,1,2.86,1.041,4.03,4.03,0,0,1,2.068,2.438,11.13,11.13,0,0,1,.205,2.565v9.4a16.819,16.819,0,0,0,.2,3.251,2.028,2.028,0,0,0,2.091,1.8,2.325,2.325,0,0,0,1.237-.279A4.418,4.418,0,0,0,760.678,352Zm-8.44-10A17.068,17.068,0,0,1,749.216,344a26.641,26.641,0,0,0-2.568,1.5,6.772,6.772,0,0,0-1.3,1.218,5.283,5.283,0,0,0-1.2,3.428,4.133,4.133,0,0,0,.927,2.768,2.954,2.954,0,0,0,2.351,1.092,4.029,4.029,0,0,0,2.351-.774,4.787,4.787,0,0,0,1.665-2.07,12.111,12.111,0,0,0,.788-4.927V342Z" transform="translate(-628.948 -318.786)" fill="url(#linear-gradient-2)"/>
  </g>
  <path id="Path_14" data-name="Path 14" d="M371.3,74.987l3.011-2.978a5.3,5.3,0,0,0,.559-.6.6.6,0,0,0,.111-.35.564.564,0,0,0-.341-.525,1.962,1.962,0,0,0-.6-.128v-.163h3.068v.163a2.2,2.2,0,0,0-.523.1,1.911,1.911,0,0,0-.46.252,10.725,10.725,0,0,0-.954.844L372.87,73.81l3.283,4.17.406.517a4.028,4.028,0,0,0,.933.865,2.132,2.132,0,0,0,1.068.4v.163h-4.707v-.163a1.956,1.956,0,0,0,.77-.177.43.43,0,0,0,.235-.4,1.424,1.424,0,0,0-.292-.723q-.142-.213-.535-.738c-.261-.35-.482-.634-.662-.852l-1.6-1.979-.463.453v2.347a5.076,5.076,0,0,0,.082,1.074,1.187,1.187,0,0,0,.747.871,2.262,2.262,0,0,0,.666.116v.163H368.25v-.163a2.322,2.322,0,0,0,.666-.116,1.225,1.225,0,0,0,.445-.294,1.15,1.15,0,0,0,.305-.574,5.35,5.35,0,0,0,.078-1.078V72.466a5.373,5.373,0,0,0-.078-1.078,1.212,1.212,0,0,0-.755-.872,2.337,2.337,0,0,0-.662-.113V70.24H372.8V70.4a2.3,2.3,0,0,0-.659.113,1.19,1.19,0,0,0-.452.3,1.2,1.2,0,0,0-.3.579,5.184,5.184,0,0,0-.082,1.074v2.517Z" transform="translate(-313.105 -59.765)" fill="url(#linear-gradient-6)"/>
  <path id="Path_15" data-name="Path 15" d="M437.171,103.757v-.163a2.322,2.322,0,0,0,.666-.116,1.225,1.225,0,0,0,.445-.294,1.15,1.15,0,0,0,.305-.574,5.35,5.35,0,0,0,.078-1.078V96.306a5.37,5.37,0,0,0-.078-1.078,1.212,1.212,0,0,0-.755-.872,2.338,2.338,0,0,0-.662-.113V94.08h4.678q.712,0,.933.013a3.078,3.078,0,0,1,1.346.383,1.986,1.986,0,0,1,.716.744,2.279,2.279,0,0,1-.323,2.559,1.923,1.923,0,0,1-.47.365,5.339,5.339,0,0,1-.762.322,6.547,6.547,0,0,1,1.06.248,2.375,2.375,0,0,1,.683.376,2.5,2.5,0,0,1,.708.919,2.8,2.8,0,0,1,.253,1.187,2.683,2.683,0,0,1-.261,1.181,2.23,2.23,0,0,1-.723.862,2.627,2.627,0,0,1-1,.4,8.981,8.981,0,0,1-1.634.113H437.17Zm3.055-9.459v4.211h.577a6.57,6.57,0,0,0,.84-.057,3.6,3.6,0,0,0,.608-.134,1.636,1.636,0,0,0,.424-.213,1.762,1.762,0,0,0,.559-.692,2.193,2.193,0,0,0,.2-.932,2.612,2.612,0,0,0-.2-1.025,1.86,1.86,0,0,0-.538-.755,1.617,1.617,0,0,0-.666-.319,5.55,5.55,0,0,0-1.135-.085h-.662Zm0,4.432v2.921a3.991,3.991,0,0,0,.075.857,1.444,1.444,0,0,0,.246.553,1.477,1.477,0,0,0,1.246.476,2.543,2.543,0,0,0,1.812-.623,2.221,2.221,0,0,0,.666-1.7,3.114,3.114,0,0,0-.207-1.145,1.915,1.915,0,0,0-.556-.811,3.141,3.141,0,0,0-2.008-.525h-1.274Z" transform="translate(-371.704 -80.05)" fill="url(#linear-gradient-7)"/>
  <path id="Path_16" data-name="Path 16" d="M194.1,15.23A52.328,52.328,0,0,0,108.57,32.921h1.37a51.051,51.051,0,0,1,94.466,0h1.37A51.818,51.818,0,0,0,194.1,15.23Zm-36.922,87.527a51.025,51.025,0,0,1-42.861-23.316H112.8a52.367,52.367,0,0,0,88.747,0h-1.512a51.025,51.025,0,0,1-42.861,23.316Z" transform="translate(-92.312)" fill="url(#linear-gradient-8)"/>
</svg>
